<svg width="99" height="50" viewBox="0 0 99 50" fill="none" xmlns="http://www.w3.org/2000/svg">
<g clip-path="url(#clip0_2_407)">
<g clip-path="url(#clip1_2_407)">
<path d="M58.4912 30.9295H47.942V18.5577C47.942 14.1346 44.3066 10.5128 39.7948 10.5128C35.3154 10.5128 31.6476 14.1026 31.6476 18.5577V30.9615H21.0659V18.5577C21.0659 8.36539 29.4403 0.0961609 39.7623 0.0961609C50.0843 0.0961609 58.4587 8.36539 58.4587 18.5577V30.9295H58.4912Z" fill="url(#paint0_linear_2_407)"/>
<path d="M88.1587 19.0385V31.4423C88.1587 35.8654 84.5232 39.4872 80.0114 39.4872C75.5321 39.4872 71.8642 35.8975 71.8642 31.4423V19.0385H61.3475V31.4423C61.3475 35.8654 57.7121 39.4872 53.2003 39.4872C48.721 39.4872 45.0531 35.8975 45.0531 31.4423V19.0385H34.5039V31.4423C34.5039 41.6346 42.8783 49.9039 53.2003 49.9039C58.4587 49.9039 63.2301 47.7564 66.6059 44.2949C70.0141 47.7564 74.7531 49.9039 80.0114 49.9039C90.3334 49.9039 98.7078 41.6346 98.7078 31.4423V19.0385H88.1587Z" fill="url(#paint1_linear_2_407)"/>
<path d="M7.53052 48.7179C7.53052 48.2051 7.92003 47.7885 8.43937 47.7885C8.76396 47.7885 8.95871 47.9167 9.15347 48.0769L9.05609 48.1731C8.8938 48.0128 8.69904 47.9167 8.43937 47.9167C7.98494 47.9167 7.66035 48.2692 7.66035 48.7179C7.66035 49.1667 7.98494 49.5192 8.43937 49.5192C8.69904 49.5192 8.8938 49.4231 9.05609 49.2308L9.15347 49.3269C8.95871 49.5192 8.76396 49.6474 8.43937 49.6474C7.92003 49.6474 7.53052 49.2308 7.53052 48.7179Z" fill="white"/>
<path d="M9.54297 48.7179C9.54297 48.2372 9.90002 47.7885 10.4843 47.7885C11.0361 47.7885 11.3931 48.2372 11.3931 48.7179C11.3931 49.1987 11.0361 49.6474 10.4518 49.6474C9.90002 49.6474 9.54297 49.1987 9.54297 48.7179ZM11.2308 48.7179C11.2308 48.2692 10.9062 47.9167 10.4518 47.9167C9.9974 47.9167 9.6728 48.2692 9.6728 48.7179C9.6728 49.1667 9.9974 49.5192 10.4518 49.5192C10.9062 49.5192 11.2308 49.1667 11.2308 48.7179Z" fill="white"/>
<path d="M11.9773 47.8205H12.1071L13.373 49.391V47.8205H13.5029V49.6474H13.4055L12.1071 48.0449V49.6474H11.9773V47.8205Z" fill="white"/>
<path d="M14.0222 49.359L14.1196 49.2628C14.3143 49.4551 14.5091 49.5192 14.7688 49.5192C15.0284 49.5192 15.2232 49.359 15.2232 49.1667C15.2232 48.9743 15.1258 48.8782 14.7039 48.782C14.2494 48.6859 14.0871 48.5577 14.0871 48.2692C14.0871 48.0128 14.3468 47.7885 14.6714 47.7885C14.9311 47.7885 15.1258 47.8526 15.2881 48.0128L15.1907 48.109C15.0284 47.9487 14.8337 47.9167 14.6389 47.9167C14.3793 47.9167 14.1845 48.0769 14.1845 48.2692C14.1845 48.4615 14.2819 48.5897 14.7039 48.6538C15.1258 48.75 15.3206 48.8782 15.3206 49.1667C15.3206 49.4551 15.0609 49.6474 14.7039 49.6474C14.4766 49.6474 14.2494 49.5513 14.0222 49.359Z" fill="white"/>
<path d="M16.4243 47.9167H15.7751V47.7885H17.2033V47.9167H16.5542V49.6154H16.4243V47.9167Z" fill="white"/>
<path d="M17.7227 47.8205H18.5017C18.7289 47.8205 18.9236 47.8846 19.021 48.0128C19.1184 48.109 19.1509 48.2051 19.1509 48.3654C19.1509 48.6538 18.9236 48.8461 18.599 48.8782L19.2158 49.6474H19.0535L18.4692 48.9102H17.8525V49.6474H17.7227V47.8205ZM18.4692 48.75C18.7613 48.75 18.9886 48.5897 18.9886 48.3333C18.9886 48.0769 18.7938 47.9487 18.4692 47.9487H17.8525V48.75H18.4692Z" fill="white"/>
<path d="M19.7026 48.8782V47.8205H19.8325V48.8782C19.8325 49.2949 20.0597 49.5513 20.4492 49.5513C20.8062 49.5513 21.0659 49.3269 21.0659 48.8782V47.8205H21.1958V48.8782C21.1958 49.391 20.9036 49.6795 20.4492 49.6795C19.9948 49.6474 19.7026 49.359 19.7026 48.8782Z" fill="white"/>
<path d="M21.7476 48.7179C21.7476 48.2051 22.1371 47.7885 22.6564 47.7885C22.981 47.7885 23.1758 47.9167 23.3705 48.0769L23.2731 48.1731C23.1108 48.0128 22.9161 47.9167 22.6564 47.9167C22.202 47.9167 21.8774 48.2692 21.8774 48.7179C21.8774 49.1667 22.202 49.5192 22.6564 49.5192C22.9161 49.5192 23.1108 49.4231 23.2731 49.2308L23.3705 49.3269C23.1758 49.5192 22.981 49.6474 22.6564 49.6474C22.1371 49.6474 21.7476 49.2308 21.7476 48.7179Z" fill="white"/>
<path d="M24.3767 47.9167H23.7275V47.7885H25.1557V47.9167H24.5066V49.6154H24.3767V47.9167Z" fill="white"/>
<path d="M25.675 47.8205H25.8049V49.6474H25.675V47.8205Z" fill="white"/>
<path d="M26.3892 48.7179C26.3892 48.2372 26.7462 47.7885 27.3305 47.7885C27.8823 47.7885 28.2393 48.2372 28.2393 48.7179C28.2393 49.1987 27.8823 49.6474 27.298 49.6474C26.7787 49.6474 26.3892 49.1987 26.3892 48.7179ZM28.1095 48.7179C28.1095 48.2692 27.7849 47.9167 27.3305 47.9167C26.876 47.9167 26.5515 48.2692 26.5515 48.7179C26.5515 49.1667 26.876 49.5192 27.3305 49.5192C27.7849 49.5192 28.1095 49.1667 28.1095 48.7179Z" fill="white"/>
<path d="M28.8237 47.8205H28.9536L30.2195 49.391V47.8205H30.3493V49.6474H30.2519L28.9536 48.0449V49.6474H28.8237V47.8205Z" fill="white"/>
<path d="M0.259766 33.109H1.78534L4.21977 36.218V33.141H5.84272V38.9744H4.41452L1.88272 35.7692V38.9744H0.259766V33.109Z" fill="white"/>
<path d="M6.91382 36.0256C6.91382 34.359 8.2771 32.9808 10.0948 32.9808C11.9125 32.9808 13.2758 34.3269 13.2758 36.0256C13.2758 37.6923 11.9125 39.0705 10.0948 39.0705C8.24464 39.0705 6.91382 37.7244 6.91382 36.0256ZM11.6204 36.0256C11.6204 35.1923 11.0037 34.4551 10.0948 34.4551C9.18595 34.4551 8.60169 35.1603 8.60169 36.0256C8.60169 36.859 9.21841 37.5962 10.1273 37.5962C11.0037 37.6282 11.6204 36.891 11.6204 36.0256Z" fill="white"/>
<path d="M14.3469 33.109H17.1384C18.0472 33.109 18.664 33.3333 19.0535 33.75C19.4105 34.1026 19.5728 34.5513 19.5728 35.1282C19.5728 36.0256 19.0859 36.6026 18.3394 36.9231L19.7676 38.9744H17.8849L16.684 37.2115H15.9699V38.9744H14.3145V33.109H14.3469ZM17.041 35.9295C17.5928 35.9295 17.9174 35.6731 17.9174 35.2244C17.9174 34.7756 17.5928 34.5192 17.041 34.5192H15.9699V35.9295H17.041Z" fill="white"/>
<path d="M22.0399 34.5513H20.2546V33.141H25.4481V34.5513H23.6953V38.9744H22.0399V34.5513Z" fill="white"/>
<path d="M26.2595 33.109H27.9149V35.2885H30.0248V33.109H31.6802V38.9423H30.0248V36.7308H27.9149V38.9423H26.2595V33.109Z" fill="white"/>
<path d="M5.55054 40.4167H7.27086L8.30955 43.7821L9.44562 40.3846H10.8738L12.0099 43.7821L13.0486 40.4167H14.7364L12.7564 46.3141H11.3282L10.1273 42.9487L8.95873 46.3141H7.53054L5.55054 40.4167Z" fill="white"/>
<path d="M15.5479 40.4167H20.3193V41.7949H17.1708V42.6923H20.0272V43.9744H17.1708V44.9039H20.3518V46.2821H15.5479V40.4167Z" fill="white"/>
<path d="M21.001 45.3846L21.9098 44.2949C22.4941 44.7436 23.1433 45 23.8249 45C24.2793 45 24.5066 44.8398 24.5066 44.5833C24.5066 44.3269 24.3118 44.1987 23.5003 44.0385C22.2344 43.75 21.2606 43.3974 21.2606 42.1795C21.2606 41.0898 22.137 40.3205 23.5652 40.3205C24.5715 40.3205 25.3505 40.5769 25.9997 41.0898L25.1882 42.2436C24.6364 41.859 24.0521 41.6667 23.5328 41.6667C23.1433 41.6667 22.9485 41.8269 22.9485 42.0513C22.9485 42.3077 23.1433 42.4359 23.9872 42.6282C25.3505 42.9167 26.1944 43.3654 26.1944 44.4551C26.1944 45.641 25.2531 46.3462 23.7925 46.3462C22.7213 46.3462 21.7475 46.0257 21.001 45.3846Z" fill="white"/>
<path d="M28.5641 41.8269H26.7788V40.4167H31.9723V41.8269H30.187V46.25H28.5641V41.8269Z" fill="white"/>
</g>
</g>
<defs>
<linearGradient id="paint0_linear_2_407" x1="21.0793" y1="15.5045" x2="58.481" y2="15.5045" gradientUnits="userSpaceOnUse">
<stop stop-color="#68A99B"/>
<stop offset="0.1723" stop-color="#6CAB9C"/>
<stop offset="0.4292" stop-color="#76AE9C"/>
<stop offset="0.7374" stop-color="#89B49E"/>
<stop offset="1" stop-color="#9EBC9F"/>
</linearGradient>
<linearGradient id="paint1_linear_2_407" x1="34.4974" y1="34.469" x2="98.7356" y2="34.469" gradientUnits="userSpaceOnUse">
<stop stop-color="#D45743"/>
<stop offset="0.1974" stop-color="#C95755"/>
<stop offset="0.4" stop-color="#C25767"/>
<stop offset="0.5888" stop-color="#BC5777"/>
<stop offset="0.7577" stop-color="#B75783"/>
<stop offset="0.9004" stop-color="#B4568A"/>
<stop offset="1" stop-color="#B3568C"/>
</linearGradient>
<clipPath id="clip0_2_407">
<rect width="99" height="50" fill="white"/>
</clipPath>
<clipPath id="clip1_2_407">
<rect width="99" height="50" fill="white"/>
</clipPath>
</defs>
</svg>
