<svg width="19" height="19" viewBox="0 0 19 19" fill="none" xmlns="http://www.w3.org/2000/svg">
<g clip-path="url(#clip0_105_208)">
<path d="M12.8003 11C12.9992 11 13.19 10.921 13.3306 10.7803C13.4713 10.6397 13.5503 10.4489 13.5503 10.25C13.5503 10.0511 13.4713 9.86032 13.3306 9.71967C13.19 9.57902 12.9992 9.5 12.8003 9.5C12.6014 9.5 12.4106 9.57902 12.27 9.71967C12.1293 9.86032 12.0503 10.0511 12.0503 10.25C12.0503 10.4489 12.1293 10.6397 12.27 10.7803C12.4106 10.921 12.6014 11 12.8003 11ZM12.8003 14C12.9992 14 13.19 13.921 13.3306 13.7803C13.4713 13.6397 13.5503 13.4489 13.5503 13.25C13.5503 13.0511 13.4713 12.8603 13.3306 12.7197C13.19 12.579 12.9992 12.5 12.8003 12.5C12.6014 12.5 12.4106 12.579 12.27 12.7197C12.1293 12.8603 12.0503 13.0511 12.0503 13.25C12.0503 13.4489 12.1293 13.6397 12.27 13.7803C12.4106 13.921 12.6014 14 12.8003 14ZM9.80029 10.25C9.80029 10.4489 9.72128 10.6397 9.58062 10.7803C9.43997 10.921 9.24921 11 9.05029 11C8.85138 11 8.66062 10.921 8.51996 10.7803C8.37931 10.6397 8.30029 10.4489 8.30029 10.25C8.30029 10.0511 8.37931 9.86032 8.51996 9.71967C8.66062 9.57902 8.85138 9.5 9.05029 9.5C9.24921 9.5 9.43997 9.57902 9.58062 9.71967C9.72128 9.86032 9.80029 10.0511 9.80029 10.25ZM9.80029 13.25C9.80029 13.4489 9.72128 13.6397 9.58062 13.7803C9.43997 13.921 9.24921 14 9.05029 14C8.85138 14 8.66062 13.921 8.51996 13.7803C8.37931 13.6397 8.30029 13.4489 8.30029 13.25C8.30029 13.0511 8.37931 12.8603 8.51996 12.7197C8.66062 12.579 8.85138 12.5 9.05029 12.5C9.24921 12.5 9.43997 12.579 9.58062 12.7197C9.72128 12.8603 9.80029 13.0511 9.80029 13.25ZM5.30029 11C5.49921 11 5.68997 10.921 5.83062 10.7803C5.97128 10.6397 6.05029 10.4489 6.05029 10.25C6.05029 10.0511 5.97128 9.86032 5.83062 9.71967C5.68997 9.57902 5.49921 9.5 5.30029 9.5C5.10138 9.5 4.91062 9.57902 4.76996 9.71967C4.62931 9.86032 4.55029 10.0511 4.55029 10.25C4.55029 10.4489 4.62931 10.6397 4.76996 10.7803C4.91062 10.921 5.10138 11 5.30029 11ZM5.30029 14C5.49921 14 5.68997 13.921 5.83062 13.7803C5.97128 13.6397 6.05029 13.4489 6.05029 13.25C6.05029 13.0511 5.97128 12.8603 5.83062 12.7197C5.68997 12.579 5.49921 12.5 5.30029 12.5C5.10138 12.5 4.91062 12.579 4.76996 12.7197C4.62931 12.8603 4.55029 13.0511 4.55029 13.25C4.55029 13.4489 4.62931 13.6397 4.76996 13.7803C4.91062 13.921 5.10138 14 5.30029 14Z" fill="white"/>
<path fill-rule="evenodd" clip-rule="evenodd" d="M5.30052 1.8125C5.4497 1.8125 5.59278 1.87176 5.69827 1.97725C5.80376 2.08274 5.86302 2.22582 5.86302 2.375V2.94725C6.35952 2.9375 6.90627 2.9375 7.50777 2.9375H10.5925C11.1948 2.9375 11.7415 2.9375 12.238 2.94725V2.375C12.238 2.22582 12.2973 2.08274 12.4028 1.97725C12.5083 1.87176 12.6513 1.8125 12.8005 1.8125C12.9497 1.8125 13.0928 1.87176 13.1983 1.97725C13.3038 2.08274 13.363 2.22582 13.363 2.375V2.99525C13.558 3.01025 13.7425 3.029 13.9173 3.05225C14.7963 3.17075 15.508 3.41975 16.0698 3.98075C16.6308 4.5425 16.8798 5.25425 16.9983 6.13325C17.113 6.98825 17.113 8.0795 17.113 9.458V11.042C17.113 12.4205 17.113 13.5125 16.9983 14.3668C16.8798 15.2458 16.6308 15.9575 16.0698 16.5192C15.508 17.0802 14.7963 17.3293 13.9173 17.4478C13.0623 17.5625 11.971 17.5625 10.5925 17.5625H7.50927C6.13077 17.5625 5.03877 17.5625 4.18452 17.4478C3.30552 17.3293 2.59377 17.0802 2.03202 16.5192C1.47102 15.9575 1.22202 15.2458 1.10352 14.3668C0.98877 13.5118 0.98877 12.4205 0.98877 11.042V9.458C0.98877 8.0795 0.98877 6.9875 1.10352 6.13325C1.22202 5.25425 1.47102 4.5425 2.03202 3.98075C2.59377 3.41975 3.30552 3.17075 4.18452 3.05225C4.35927 3.029 4.54452 3.01025 4.73877 2.99525V2.375C4.73877 2.22595 4.79793 2.08299 4.90326 1.97752C5.00858 1.87205 5.15146 1.8127 5.30052 1.8125ZM4.33302 4.1675C3.57927 4.26875 3.14427 4.45925 2.82702 4.7765C2.50977 5.09375 2.31927 5.52875 2.21802 6.28325C2.20077 6.41075 2.18652 6.54575 2.17452 6.6875H15.9265C15.9145 6.545 15.9003 6.41075 15.883 6.2825C15.7818 5.52875 15.5913 5.09375 15.274 4.7765C14.9568 4.45925 14.5218 4.26875 13.7673 4.1675C12.997 4.064 11.9808 4.0625 10.5505 4.0625H7.55052C6.12027 4.0625 5.10477 4.064 4.33302 4.1675ZM2.11302 9.5C2.11302 8.8595 2.11302 8.30225 2.12277 7.8125H15.9783C15.988 8.30225 15.988 8.8595 15.988 9.5V11C15.988 12.4303 15.9865 13.4465 15.883 14.2175C15.7818 14.9713 15.5913 15.4062 15.274 15.7235C14.9568 16.0408 14.5218 16.2313 13.7673 16.3325C12.997 16.436 11.9808 16.4375 10.5505 16.4375H7.55052C6.12027 16.4375 5.10477 16.436 4.33302 16.3325C3.57927 16.2313 3.14427 16.0408 2.82702 15.7235C2.50977 15.4062 2.31927 14.9712 2.21802 14.2167C2.11452 13.4465 2.11302 12.4303 2.11302 11V9.5Z" fill="white"/>
</g>
<defs>
<clipPath id="clip0_105_208">
<rect width="18" height="18" fill="white" transform="translate(0.050293 0.5)"/>
</clipPath>
</defs>
</svg>
