<svg width="64" height="65" viewBox="0 0 64 65" fill="none" xmlns="http://www.w3.org/2000/svg">
<path fill-rule="evenodd" clip-rule="evenodd" d="M32.0078 5.83331C38.373 5.83331 44.4775 8.36188 48.9784 12.8628C53.4792 17.3636 56.0078 23.4681 56.0078 29.8333C56.0078 38.0307 51.5385 44.74 46.8291 49.5533C44.4759 51.9317 41.9086 54.0884 39.1598 55.996L38.0238 56.7693L37.4905 57.124L36.4851 57.764L35.5891 58.3107L34.4798 58.956C33.7265 59.3848 32.8746 59.6102 32.0078 59.6102C31.141 59.6102 30.2891 59.3848 29.5358 58.956L28.4265 58.3107L27.0398 57.4573L26.5278 57.124L25.4345 56.396C22.4691 54.3889 19.7067 52.0971 17.1865 49.5533C12.4771 44.7373 8.00781 38.0307 8.00781 29.8333C8.00781 23.4681 10.5364 17.3636 15.0372 12.8628C19.5381 8.36188 25.6426 5.83331 32.0078 5.83331ZM32.0078 11.1666C27.0571 11.1666 22.3092 13.1333 18.8085 16.634C15.3078 20.1347 13.3411 24.8826 13.3411 29.8333C13.3411 36.0253 16.7331 41.46 20.9971 45.8227C22.8308 47.6784 24.8125 49.3818 26.9225 50.916L28.1438 51.7853C28.5385 52.06 28.9171 52.316 29.2825 52.5533L30.3225 53.22L31.2371 53.7773L32.0078 54.228L33.2211 53.5107L34.1998 52.8973C34.7198 52.5667 35.2798 52.196 35.8718 51.7853L37.0931 50.916C39.2032 49.3818 41.1848 47.6784 43.0185 45.8227C47.2825 41.4627 50.6745 36.0253 50.6745 29.8333C50.6745 24.8826 48.7078 20.1347 45.2071 16.634C41.7065 13.1333 36.9585 11.1666 32.0078 11.1666ZM32.0078 19.1666C34.8368 19.1666 37.5499 20.2905 39.5503 22.2908C41.5507 24.2912 42.6745 27.0043 42.6745 29.8333C42.6745 32.6623 41.5507 35.3754 39.5503 37.3758C37.5499 39.3762 34.8368 40.5 32.0078 40.5C29.1788 40.5 26.4657 39.3762 24.4653 37.3758C22.465 35.3754 21.3411 32.6623 21.3411 29.8333C21.3411 27.0043 22.465 24.2912 24.4653 22.2908C26.4657 20.2905 29.1788 19.1666 32.0078 19.1666ZM32.0078 24.5C30.5933 24.5 29.2368 25.0619 28.2366 26.0621C27.2364 27.0623 26.6745 28.4188 26.6745 29.8333C26.6745 31.2478 27.2364 32.6044 28.2366 33.6046C29.2368 34.6047 30.5933 35.1666 32.0078 35.1666C33.4223 35.1666 34.7789 34.6047 35.779 33.6046C36.7792 32.6044 37.3411 31.2478 37.3411 29.8333C37.3411 28.4188 36.7792 27.0623 35.779 26.0621C34.7789 25.0619 33.4223 24.5 32.0078 24.5Z" fill="white"/>
</svg>
