<svg width="25" height="25" viewBox="0 0 25 25" fill="none" xmlns="http://www.w3.org/2000/svg">
<g clip-path="url(#clip0_2_311)">
<path d="M10.2002 11.0217C10.2002 10.3852 10.4531 9.77474 10.9031 9.32466C11.3532 8.87457 11.9637 8.62171 12.6002 8.62171C13.2367 8.62171 13.8472 8.87457 14.2973 9.32466C14.7473 9.77474 15.0002 10.3852 15.0002 11.0217C15.0002 11.6582 14.7473 12.2687 14.2973 12.7188C13.8472 13.1689 13.2367 13.4217 12.6002 13.4217C11.9637 13.4217 11.3532 13.1689 10.9031 12.7188C10.4531 12.2687 10.2002 11.6582 10.2002 11.0217Z" fill="#F24E1E"/>
<path fill-rule="evenodd" clip-rule="evenodd" d="M2.2002 11.0217C2.20147 8.26444 3.29779 5.62056 5.24808 3.67147C7.19837 1.72238 9.84292 0.627688 12.6002 0.628113C18.3426 0.628113 23.0002 5.28251 23.0002 11.0217C23.0002 15.3001 20.8594 18.6905 18.565 20.9817C17.5507 22.0004 16.4141 22.8893 15.181 23.6281C14.6658 23.9321 14.1842 24.1721 13.765 24.3353C13.3698 24.4921 12.9554 24.6137 12.6002 24.6137C12.245 24.6137 11.8306 24.4921 11.4354 24.3353C10.946 24.1362 10.4726 23.8997 10.0194 23.6281C8.78635 22.8892 7.64968 22.0003 6.6354 20.9817C4.341 18.6905 2.2002 15.3001 2.2002 11.0217ZM12.6002 7.02331C11.5393 7.02331 10.5219 7.44474 9.77177 8.19489C9.02162 8.94503 8.6002 9.96245 8.6002 11.0233C8.6002 12.0842 9.02162 13.1016 9.77177 13.8517C10.5219 14.6019 11.5393 15.0233 12.6002 15.0233C13.6611 15.0233 14.6785 14.6019 15.4286 13.8517C16.1788 13.1016 16.6002 12.0842 16.6002 11.0233C16.6002 9.96245 16.1788 8.94503 15.4286 8.19489C14.6785 7.44474 13.6611 7.02331 12.6002 7.02331Z" fill="#F24E1E"/>
</g>
<defs>
<clipPath id="clip0_2_311">
<rect width="24" height="24" fill="white" transform="translate(0.600098 0.628113)"/>
</clipPath>
</defs>
</svg>
