<svg width="18" height="22" viewBox="0 0 18 22" fill="none" xmlns="http://www.w3.org/2000/svg">
<path d="M9.05615 0.5C6.86888 0.502481 4.7719 1.37247 3.22526 2.91911C1.67862 4.46575 0.808634 6.56273 0.806152 8.75C0.806152 15.8094 8.30615 21.1409 8.62584 21.3641C8.75195 21.4524 8.90218 21.4998 9.05615 21.4998C9.21012 21.4998 9.36036 21.4524 9.48646 21.3641C9.80615 21.1409 17.3062 15.8094 17.3062 8.75C17.3037 6.56273 16.4337 4.46575 14.887 2.91911C13.3404 1.37247 11.2434 0.502481 9.05615 0.5ZM9.05615 5.75C9.6495 5.75 10.2295 5.92595 10.7229 6.25559C11.2162 6.58524 11.6007 7.05377 11.8278 7.60195C12.0549 8.15013 12.1143 8.75333 11.9985 9.33527C11.8828 9.91721 11.597 10.4518 11.1775 10.8713C10.7579 11.2909 10.2234 11.5766 9.64142 11.6924C9.05948 11.8081 8.45628 11.7487 7.9081 11.5216C7.35992 11.2946 6.89139 10.9101 6.56174 10.4167C6.2321 9.92336 6.05615 9.34334 6.05615 8.75C6.05615 7.95435 6.37222 7.19129 6.93483 6.62868C7.49744 6.06607 8.2605 5.75 9.05615 5.75Z" fill="#EA4335"/>
</svg>
