<svg width="18" height="22" viewBox="0 0 18 22" fill="none" xmlns="http://www.w3.org/2000/svg">
<path d="M9.05615 0.601624C6.86888 0.604105 4.7719 1.4741 3.22526 3.02073C1.67862 4.56737 0.808634 6.66435 0.806152 8.85162C0.806152 15.911 8.30615 21.2426 8.62584 21.4657C8.75195 21.554 8.90218 21.6014 9.05615 21.6014C9.21012 21.6014 9.36036 21.554 9.48646 21.4657C9.80615 21.2426 17.3062 15.911 17.3062 8.85162C17.3037 6.66435 16.4337 4.56737 14.887 3.02073C13.3404 1.4741 11.2434 0.604105 9.05615 0.601624ZM9.05615 5.85162C9.6495 5.85162 10.2295 6.02757 10.7229 6.35721C11.2162 6.68686 11.6007 7.15539 11.8278 7.70357C12.0549 8.25175 12.1143 8.85495 11.9985 9.43689C11.8828 10.0188 11.597 10.5534 11.1775 10.9729C10.7579 11.3925 10.2234 11.6782 9.64142 11.794C9.05948 11.9097 8.45628 11.8503 7.9081 11.6233C7.35992 11.3962 6.89139 11.0117 6.56174 10.5183C6.2321 10.025 6.05615 9.44497 6.05615 8.85162C6.05615 8.05597 6.37222 7.29291 6.93483 6.7303C7.49744 6.16769 8.2605 5.85162 9.05615 5.85162Z" fill="white"/>
</svg>
